# xmcd
# 
# Track frame offsets:
#     150
#     16614
#     32783
#     68414
#     93501
# 
# Disc length: 1665
# 
# Revision: 1
# Processed by: cddbd v1.5.2PL0 Copyright (c) Steve Scherf et al.
# Submitted via: BonkEnc v1.0.15
# 
DISCID=2e067f05
DTITLE=Kylie Minogue - Put Your Hands Up (If You Feel Love)
DYEAR=2011
DGENRE=Pop
TTITLE0=Put Your Hands Up (If You Feel Love)
TTITLE1=Put Your Hands Up (If You Feel Love) (Pete Hammond Remix - Radio Edit)
TTITLE2=Put Your Hands Up (If You Feel Love) (Pete Hammond Remix)
TTITLE3=Cupid Boy (Live From London)
TTITLE4=Cupid Boy (Stereogamous Vocal Mix)
EXTD=
EXTT0=
EXTT1=
EXTT2=
EXTT3=
EXTT4=
PLAYORDER=
